<svg xmlns="http://www.w3.org/2000/svg" viewBox="0 0 64 64" width="64" height="64" baseProfile="basic"><linearGradient id="a" x1="32" x2="32" y1="7" y2="58" gradientUnits="userSpaceOnUse"><stop offset="0" stop-color="#6dc7ff"/><stop offset=".699" stop-color="#e6abff"/></linearGradient><path fill="url(#a)" d="M53.27 26.96c.28-1.05.42-2.11.42-3.17 0-6.86-5.58-12.43-12.43-12.43-.77 0-1.56.07-2.35.23A12.3 12.3 0 0 0 29.28 7a12.39 12.39 0 0 0-11.92 8.89C11.43 16.9 7.04 22.05 7.04 28.14c0 3.45 1.43 6.72 3.93 9.07-.44 1.3-.66 2.64-.66 4 0 6.86 5.58 12.43 12.43 12.43.44 0 .88-.02 1.38-.08C26.5 56.39 29.93 58 33.63 58c5.88 0 10.96-4.19 12.16-9.88 6.32-.63 11.17-5.91 11.17-12.35 0-3.31-1.34-6.48-3.69-8.81m-15.02 8.92-6.63 4-6.5-4v-7.26l6.63-3.87 6.63 3.75z"/><linearGradient id="b" x1="32" x2="32" y1=".872" y2="62.679" gradientUnits="userSpaceOnUse"><stop offset="0" stop-color="#1a6dff"/><stop offset="1" stop-color="#c822ff"/></linearGradient><path fill="url(#b)" d="M53.274 26.955c.275-1.045.415-2.107.415-3.166 0-6.855-5.578-12.434-12.434-12.434-.766 0-1.553.079-2.35.235A12.28 12.28 0 0 0 29.278 7a12.385 12.385 0 0 0-11.913 8.891c-5.93 1.012-10.32 6.163-10.32 12.254 0 3.448 1.424 6.715 3.93 9.07a12.4 12.4 0 0 0-.664 3.996c0 6.855 5.578 12.434 12.434 12.434.433 0 .874-.027 1.38-.087A12.33 12.33 0 0 0 33.633 58c5.875 0 10.96-4.192 12.152-9.878a12.37 12.37 0 0 0 11.17-12.355 12.43 12.43 0 0 0-3.681-8.812m-1.585-3.166c0 .646-.07 1.293-.193 1.937l-12.293-7.185-13.146 7.991v-4.91l12.814-7.972a10.5 10.5 0 0 1 2.383-.295c5.754 0 10.435 4.681 10.435 10.434M37.397 35.171l-5.563 3.316-5.776-3.303v-6.311l5.465-3.322-.031.052 5.905 3.48zM29.278 9a10.28 10.28 0 0 1 7.728 3.457l-12.948 8.054V34.04l-4.898-2.801V16.922A10.394 10.394 0 0 1 29.278 9M9.044 28.145a10.42 10.42 0 0 1 8.116-10.169V32.4l12.701 7.264-5.227 3.115-11.897-6.674a10.44 10.44 0 0 1-3.693-7.96m3.267 13.066c0-.955.138-1.902.4-2.828l11.954 6.706 12.732-7.588v6.27l-13.172 7.754c-.57.078-1.043.12-1.48.12-5.753 0-10.434-4.681-10.434-10.434M33.633 56a10.34 10.34 0 0 1-7.546-3.252l13.31-7.835V30.261l4.539 2.675V47.09C43.192 52.173 38.773 56 33.633 56m12.303-9.909V31.793l-6.539-3.853v-.068h-.115l-5.879-3.465 5.821-3.538 12.309 7.195a10.44 10.44 0 0 1 3.422 7.703 10.38 10.38 0 0 1-9.019 10.324"/></svg>
