<svg xmlns="http://www.w3.org/2000/svg" viewBox="0 0 64 64" width="64" height="64" baseProfile="basic"><linearGradient id="a" x1="31.94" x2="31.94" y1="8.534" y2="56.18" gradientUnits="userSpaceOnUse"><stop offset="0" stop-color="#6dc7ff"/><stop offset=".492" stop-color="#aab9ff"/><stop offset="1" stop-color="#e6abff"/></linearGradient><path fill="url(#a)" d="M49.42 11.71 46.2 48.53l-14.3 3.92-14.12-4.01-3.32-36.73z"/><path fill="#fff" d="M19.153 17.377h25.251l-2.228 25.357-10.291 3.395-10.186-2.971-.636-7.32h4.774l.637 3.819 5.517 1.485 5.623-1.697.424-6.578-17.187.106-.425-5.199h18.143l.318-5.411-19.203-.106z"/><linearGradient id="b" x1="31.939" x2="31.939" y1="3.214" y2="58.258" gradientUnits="userSpaceOnUse"><stop offset="0" stop-color="#1a6dff"/><stop offset="1" stop-color="#c822ff"/></linearGradient><path fill="url(#b)" d="M52.777 8.635a.85.85 0 0 0-.628-.28H11.722c-.238 0-.458.102-.62.28s-.246.416-.221.645l3.709 41.165c.034.357.28.645.62.747l16.441 4.668a1.1 1.1 0 0 0 .459 0l16.653-4.566a.85.85 0 0 0 .628-.738L52.998 9.28a.86.86 0 0 0-.221-.645M31.04 53.916l-14.811-4.201-3.573-39.663H31.04v6.476H19.149a.86.86 0 0 0-.849.925l.475 4.982a.85.85 0 0 0 .849.772H31.04v3.718H20.134a.86.86 0 0 0-.849.925l.484 5.093a.85.85 0 0 0 .849.772H31.04v6.213l-3.887-1.137-.365-3.37a.84.84 0 0 0-.84-.755h-5.076a.86.86 0 0 0-.849.925l.721 7.639c.034.348.28.645.62.738l9.676 2.767zm1.698-20.2h4.481l-.407 4.965-4.074 1.188zm-.722 8.131.721-.212 5.11-1.485a.87.87 0 0 0 .611-.747l.526-6.468a.9.9 0 0 0-.221-.645.87.87 0 0 0-.628-.272H21.39l-.323-3.395h17.485c.441 0 .806-.34.849-.781l.441-5.415a.9.9 0 0 0-.221-.645.87.87 0 0 0-.628-.272H20.397l-.314-3.285h23.596L41.387 42.5l-8.649 2.521-.747.221-.951-.272-8.657-2.47-.577-6.137h3.378l.348 3.174c.034.34.272.628.603.721l4.906 1.443.501.144a.9.9 0 0 0 .474.002m.722-18.639h5.339l-.306 3.718h-5.033zm15.006 26.609-15.006 4.108v-7.13l9.676-2.826a.855.855 0 0 0 .611-.738l2.436-25.777a.856.856 0 0 0-.849-.925H32.738v-6.476h18.486z"/></svg>
