<svg xmlns="http://www.w3.org/2000/svg" viewBox="0 0 64 64" width="64" height="64"><linearGradient id="a" x1="41.5" x2="41.5" y1="24.092" y2="41.092" gradientUnits="userSpaceOnUse"><stop offset="0" stop-color="#1a6dff"/><stop offset="1" stop-color="#c822ff"/></linearGradient><path fill="url(#a)" d="M41.5 24.092c-4.687 0-8.5 3.813-8.5 8.5s3.813 8.5 8.5 8.5 8.5-3.813 8.5-8.5-3.813-8.5-8.5-8.5m0 15c-3.584 0-6.5-2.916-6.5-6.5s2.916-6.5 6.5-6.5 6.5 2.916 6.5 6.5-2.916 6.5-6.5 6.5"/><linearGradient id="b" x1="31.5" x2="31.5" y1="5.092" y2="59.092" gradientUnits="userSpaceOnUse"><stop offset="0" stop-color="#1a6dff"/><stop offset="1" stop-color="#c822ff"/></linearGradient><path fill="url(#b)" d="M40.56 24.092c5.206 0 9.44-4.249 9.44-9.471 0-5.255-4.235-9.529-9.44-9.529H22.44c-5.206 0-9.44 4.248-9.44 9.47a9.54 9.54 0 0 0 5.265 8.534C15.149 24.651 13 27.857 13 31.562c0 3.769 2.197 7.025 5.368 8.57C15.163 41.753 13 45.122 13 49.116c0 5.501 4.476 9.977 9.977 9.977C28.503 59.092 33 54.595 33 49.068V24.092zM15 14.562c0-4.119 3.338-7.47 7.44-7.47H31v15h-8.56c-4.102 0-7.44-3.378-7.44-7.53m16 34.506c0 4.425-3.599 8.024-8.023 8.024-4.398 0-7.977-3.578-7.977-7.977 0-4.499 3.395-8.023 7.729-8.023H31zm0-9.976h-8.505c-4.132 0-7.495-3.378-7.495-7.53 0-4.119 3.362-7.47 7.495-7.47H31zm2-17v-15h7.56c4.103 0 7.44 3.378 7.44 7.529 0 4.119-3.338 7.471-7.44 7.471z"/><linearGradient id="c" x1="42.159" x2="42.159" y1="29.41" y2="37.092" gradientUnits="userSpaceOnUse"><stop offset="0" stop-color="#6dc7ff"/><stop offset="1" stop-color="#e6abff"/></linearGradient><path fill="url(#c)" d="m44.682 29.41-6.364 6.364a4.5 4.5 0 0 0 6.364-6.364"/><linearGradient id="d" x1="23" x2="23" y1="49.123" y2="55.046" gradientUnits="userSpaceOnUse"><stop offset="0" stop-color="#6dc7ff"/><stop offset="1" stop-color="#e6abff"/></linearGradient><path fill="url(#d)" d="M17 49.154c0 3.254 2.679 5.892 5.984 5.892S29 52.377 29 49.123z"/><linearGradient id="e" x1="23.029" x2="23.029" y1="9.092" y2="14.092" gradientUnits="userSpaceOnUse"><stop offset="0" stop-color="#6dc7ff"/><stop offset="1" stop-color="#e6abff"/></linearGradient><path fill="url(#e)" d="M22.5 9.092a5.5 5.5 0 0 0-5.478 5h12.013v-5z"/></svg>
