<svg xmlns="http://www.w3.org/2000/svg" viewBox="0 0 64 64" width="64" height="64"><linearGradient id="a" x1="32" x2="32" y1="5.34" y2="56.998" gradientUnits="userSpaceOnUse"><stop offset="0" stop-color="#1a6dff"/><stop offset="1" stop-color="#c822ff"/></linearGradient><path fill="url(#a)" d="M57.9 28.5 35.5 6.1c-.9-.9-2.2-1.5-3.5-1.5s-2.6.5-3.5 1.5L6.1 28.5c-.9.9-1.5 2.2-1.5 3.5s.5 2.6 1.5 3.5l22.3 22.3c.9.9 2.2 1.5 3.5 1.5s2.6-.5 3.5-1.5l22.3-22.3c.9-.9 1.5-2.2 1.5-3.5s-.4-2.6-1.3-3.5m-1.4 5.6L34.1 56.5c-1.1 1.1-3.1 1.1-4.2 0L7.5 34.1c-.5-.5-.8-1.3-.8-2.1s.3-1.6.9-2.1l16-16 6.5 6.5V43h2V22.4l10.8 10.8 1.4-1.4-19.4-19.3 5-5c.5-.5 1.3-.8 2.1-.8s1.6.3 2.1.9l22.3 22.3q.9.9.9 2.1c0 1.2-.3 1.6-.8 2.1"/><linearGradient id="b" x1="31" x2="31" y1="39" y2="47.213" gradientUnits="userSpaceOnUse"><stop offset="0" stop-color="#6dc7ff"/><stop offset="1" stop-color="#e6abff"/></linearGradient><circle cx="31" cy="43" r="4" fill="url(#b)"/><linearGradient id="c" x1="31" x2="31" y1="17.043" y2="24.326" gradientUnits="userSpaceOnUse"><stop offset="0" stop-color="#6dc7ff"/><stop offset="1" stop-color="#e6abff"/></linearGradient><circle cx="31" cy="21" r="4" fill="url(#c)"/><linearGradient id="d" x1="43" x2="43" y1="28.021" y2="35.733" gradientUnits="userSpaceOnUse"><stop offset="0" stop-color="#6dc7ff"/><stop offset="1" stop-color="#e6abff"/></linearGradient><circle cx="43" cy="32" r="4" fill="url(#d)"/></svg>
