<svg xmlns="http://www.w3.org/2000/svg" viewBox="0 0 64 64" width="64" height="64"><linearGradient id="a" x1="32.092" x2="32.092" y1="7.766" y2="57.066" gradientUnits="userSpaceOnUse"><stop offset="0" stop-color="#1a6dff"/><stop offset="1" stop-color="#c822ff"/></linearGradient><path fill="url(#a)" d="M53.316 8.324A1 1 0 0 0 52.579 8H13.605a3 3 0 0 0-2.988 3.264l3.318 37.613a3.02 3.02 0 0 0 2.165 2.62l15.075 4.308a3.04 3.04 0 0 0 1.648 0l15.075-4.308a3.02 3.02 0 0 0 2.165-2.621l3.511-39.788a1 1 0 0 0-.258-.764m-5.244 40.375a.99.99 0 0 1-.722.874l-15.075 4.308a1 1 0 0 1-.551 0l-15.075-4.308a.99.99 0 0 1-.722-.873l-3.318-37.612a.98.98 0 0 1 .259-.763 1 1 0 0 1 .737-.325h37.882z"/><linearGradient id="b" x1="32.001" x2="32.001" y1="7.766" y2="57.066" gradientUnits="userSpaceOnUse"><stop offset="0" stop-color="#1a6dff"/><stop offset="1" stop-color="#c822ff"/></linearGradient><path fill="url(#b)" d="m18.521 48.028 13.205 3.773a1 1 0 0 0 .548 0l13.205-3.773c.398-.114.686-.462.722-.874l3.006-34.066A1.003 1.003 0 0 0 48.211 12H15.79a1 1 0 0 0-.996 1.088l3.005 34.066a1 1 0 0 0 .722.874M47.119 14l-2.85 32.294L32 49.8l-12.27-3.506L16.882 14z"/><linearGradient id="c" x1="31.995" x2="31.995" y1="19.575" y2="40.626" gradientUnits="userSpaceOnUse"><stop offset="0" stop-color="#6dc7ff"/><stop offset="1" stop-color="#e6abff"/></linearGradient><path fill="url(#c)" d="m41.661 23.541.245-3a.5.5 0 0 0-.498-.541H22.583a.5.5 0 0 0-.499.532l.698 11a.5.5 0 0 0 .499.468h12.916a.5.5 0 0 1 .499.533l-.269 4.061a.5.5 0 0 1-.337.44l-3.982 1.36a.5.5 0 0 1-.323 0L27.8 37.033a.5.5 0 0 1-.337-.436l-.159-2.134a.5.5 0 0 0-.499-.463h-3.349a.5.5 0 0 0-.499.535l.374 5.319a.5.5 0 0 0 .342.44l8.115 2.671a.5.5 0 0 0 .313 0l8.113-2.67a.5.5 0 0 0 .343-.444l.707-11.32a.5.5 0 0 0-.499-.531H27.404a.5.5 0 0 1-.498-.459l-.245-3A.5.5 0 0 1 27.16 24h14.003a.5.5 0 0 0 .498-.459"/></svg>
