<svg xmlns="http://www.w3.org/2000/svg" viewBox="0 0 64 64" width="64" height="64"><linearGradient id="a" x1="32" x2="32" y1="9.083" y2="54.676" gradientUnits="userSpaceOnUse" spreadMethod="reflect"><stop offset="0" stop-color="#1a6dff"/><stop offset="1" stop-color="#c822ff"/></linearGradient><path fill="url(#a)" d="M50 55H14c-2.757 0-5-2.243-5-5V14c0-2.757 2.243-5 5-5h36c2.757 0 5 2.243 5 5v36c0 2.757-2.243 5-5 5M14 11c-1.654 0-3 1.346-3 3v36c0 1.654 1.346 3 3 3h36c1.654 0 3-1.346 3-3V14c0-1.654-1.346-3-3-3z"/><linearGradient id="b" x1="40" x2="40" y1="32" y2="44" gradientUnits="userSpaceOnUse" spreadMethod="reflect"><stop offset="0" stop-color="#6dc7ff"/><stop offset="1" stop-color="#e6abff"/></linearGradient><path fill="url(#b)" d="M38 43V33a1 1 0 0 1 1-1h2a1 1 0 0 1 1 1v10a1 1 0 0 1-1 1h-2a1 1 0 0 1-1-1"/><linearGradient id="c" x1="40" x2="40" y1="26" y2="30" gradientUnits="userSpaceOnUse" spreadMethod="reflect"><stop offset="0" stop-color="#6dc7ff"/><stop offset="1" stop-color="#e6abff"/></linearGradient><path fill="url(#c)" d="M38 29v-2a1 1 0 0 1 1-1h2a1 1 0 0 1 1 1v2a1 1 0 0 1-1 1h-2a1 1 0 0 1-1-1"/><linearGradient id="d" x1="27.5" x2="27.5" y1="21" y2="44" gradientUnits="userSpaceOnUse" spreadMethod="reflect"><stop offset="0" stop-color="#6dc7ff"/><stop offset="1" stop-color="#e6abff"/></linearGradient><path fill="url(#d)" d="M30 21h-5c-2.21 0-4 1.79-4 4v18c0 .55.45 1 1 1h2c.55 0 1-.45 1-1v-7h5v7c0 .55.45 1 1 1h2c.55 0 1-.45 1-1V25c0-2.21-1.79-4-4-4m-1 11h-3c-.55 0-1-.45-1-1v-5c0-.55.45-1 1-1h3c.55 0 1 .45 1 1v5c0 .55-.45 1-1 1"/></svg>
