<svg xmlns="http://www.w3.org/2000/svg" viewBox="0 0 64 64" width="64" height="64"><linearGradient id="a" x1="31.937" x2="31.937" y1="61" y2="7.125" gradientTransform="matrix(1 0 0 -1 0 66)" gradientUnits="userSpaceOnUse"><stop offset="0" stop-color="#1a6dff"/><stop offset="1" stop-color="#c822ff"/></linearGradient><path fill="url(#a)" d="M31.875 58.875a1 1 0 0 1-.271-.037l-18.625-5.25a1 1 0 0 1-.725-.872L8.004 6.091A1 1 0 0 1 9 5h45.875a1 1 0 0 1 .996 1.086l-4 46.625a1 1 0 0 1-.729.878l-19 5.25a1 1 0 0 1-.267.036M14.184 51.85l17.694 4.987 18.061-4.99L53.785 7H10.096z"/><linearGradient id="b" x1="41.5" x2="41.5" y1="56" y2="12" gradientTransform="matrix(1 0 0 -1 0 66)" gradientUnits="userSpaceOnUse"><stop offset="0" stop-color="#6dc7ff"/><stop offset="1" stop-color="#e6abff"/></linearGradient><path fill="url(#b)" d="M32 10v44l15.25-4L51 10zm15.375 18.625-1.125 14.75-12.5 3.125v-5.25l9-2.5.125-4.375-9.25 1.375V16H48.25l-.375 5.375-9.625.125v8.125z"/><linearGradient id="c" x1="23.313" x2="23.313" y1="50" y2="19.375" gradientTransform="matrix(1 0 0 -1 0 66)" gradientUnits="userSpaceOnUse"><stop offset="0" stop-color="#6dc7ff"/><stop offset="1" stop-color="#e6abff"/></linearGradient><path fill="url(#c)" d="M16.625 42.875v-5.5l9 2.5V16H30v30.625z"/></svg>
