<svg xmlns="http://www.w3.org/2000/svg" viewBox="0 0 64 64" width="64" height="64"><linearGradient id="a" x1="39.049" x2="39.049" y1="278.733" y2="246.459" gradientTransform="matrix(1 0 0 -1 0 294)" gradientUnits="userSpaceOnUse"><stop offset="0" stop-color="#6dc7ff"/><stop offset="1" stop-color="#e6abff"/></linearGradient><path fill="url(#a)" d="M33.098 17.131 36 23v20.078l-2.863 6.752 9.421-2.654A3.34 3.34 0 0 0 45 43.977V22.984a3.336 3.336 0 0 0-2.448-3.205z"/><linearGradient id="b" x1="33.21" x2="16.007" y1="277.744" y2="253.179" gradientTransform="matrix(1 0 0 -1 0 294)" gradientUnits="userSpaceOnUse"><stop offset="0" stop-color="#6dc7ff"/><stop offset="1" stop-color="#e6abff"/></linearGradient><path fill="url(#b)" d="m21.152 42.533 2.756-1.471c.77-.418 1.093-1.069 1.092-1.938V28.249c.001-.999.787-1.875 1.736-2.218L36 23l.034-2.966c-.002-1.537-1.44-2.482-2.936-2.903a3.56 3.56 0 0 0-2.685.321l-10.176 5.739c-1.05.591-1.237 1.886-1.237 3.081v14.829c-.002.966.327 1.641 1.304 1.644a1.8 1.8 0 0 0 .848-.212"/><linearGradient id="c" x1="29.68" x2="29.68" y1="240.689" y2="254.125" gradientTransform="matrix(1 0 0 -1 0 294)" gradientUnits="userSpaceOnUse"><stop offset=".118" stop-color="#e6abff"/><stop offset="1" stop-color="#6dc7ff"/></linearGradient><path fill="url(#c)" d="M36 42.664H25.116a1.776 1.776 0 0 0-.877 3.308l6.262 3.55a3.4 3.4 0 0 0 1.692.447c.319 0 .637-.047.943-.138 1.478-.42 2.867-1.771 2.863-3.308v-3.859z"/><linearGradient id="d" x1="32" x2="32" y1="-2052.083" y2="-2097.676" gradientTransform="matrix(1 0 0 -1 0 -2042)" gradientUnits="userSpaceOnUse"><stop offset="0" stop-color="#1a6dff"/><stop offset="1" stop-color="#c822ff"/></linearGradient><path fill="url(#d)" d="M50 56H14c-2.76 0-5-2.24-5-5V15c0-2.76 2.24-5 5-5h36c2.76 0 5 2.24 5 5v36c0 2.76-2.24 5-5 5M14 12c-1.65 0-3 1.35-3 3v36c0 1.65 1.35 3 3 3h36c1.65 0 3-1.35 3-3V15c0-1.65-1.35-3-3-3z"/></svg>
