<svg xmlns="http://www.w3.org/2000/svg" viewBox="0 0 64 64" width="64" height="64"><linearGradient id="a" x1="32" x2="32" y1="9.083" y2="54.676" gradientUnits="userSpaceOnUse" spreadMethod="reflect"><stop offset="0" stop-color="#1a6dff"/><stop offset="1" stop-color="#c822ff"/></linearGradient><path fill="url(#a)" d="M50 55H14c-2.757 0-5-2.243-5-5V14c0-2.757 2.243-5 5-5h36c2.757 0 5 2.243 5 5v36c0 2.757-2.243 5-5 5M14 11c-1.654 0-3 1.346-3 3v36c0 1.654 1.346 3 3 3h36c1.654 0 3-1.346 3-3V14c0-1.654-1.346-3-3-3z"/><linearGradient id="b" x1="39.5" x2="39.5" y1="26" y2="44" gradientUnits="userSpaceOnUse" spreadMethod="reflect"><stop offset="0" stop-color="#6dc7ff"/><stop offset="1" stop-color="#e6abff"/></linearGradient><path fill="url(#b)" d="M34 43v-2a1 1 0 0 1 1-1h6v-3h-3a4 4 0 0 1-4-4v-3a4 4 0 0 1 4-4h4a1 1 0 0 1 1 1v2a1 1 0 0 1-1 1h-4v3h3a4 4 0 0 1 4 4v3a4 4 0 0 1-4 4h-6a1 1 0 0 1-1-1"/><linearGradient id="c" x1="24.5" x2="24.5" y1="21" y2="44" gradientUnits="userSpaceOnUse" spreadMethod="reflect"><stop offset="0" stop-color="#6dc7ff"/><stop offset="1" stop-color="#e6abff"/></linearGradient><path fill="url(#c)" d="M22 21a4 4 0 0 0-4 4v18a1 1 0 0 0 1 1h2a1 1 0 0 0 1-1v-7h5a4 4 0 0 0 4-4v-7a4 4 0 0 0-4-4zm0 10v-5a1 1 0 0 1 1-1h3a1 1 0 0 1 1 1v5a1 1 0 0 1-1 1h-3a1 1 0 0 1-1-1"/></svg>
