<svg xmlns="http://www.w3.org/2000/svg" viewBox="0 0 64 64" width="64" height="64"><linearGradient id="a" x1="32" x2="32" y1="25.213" y2="36.722" gradientUnits="userSpaceOnUse"><stop offset="0" stop-color="#6dc7ff"/><stop offset="1" stop-color="#e6abff"/></linearGradient><circle cx="32" cy="32" r="6" fill="url(#a)"/><linearGradient id="b" x1="32" x2="32" y1="7.426" y2="53.44" gradientUnits="userSpaceOnUse"><stop offset="0" stop-color="#1a6dff"/><stop offset="1" stop-color="#c822ff"/></linearGradient><path fill="url(#b)" d="M58 32c0-3.758-4.243-7.017-10.853-8.992.221-1.031.407-2.045.524-3.015.657-5.483-.483-9.323-3.211-10.813-2.729-1.489-6.574-.372-10.831 3.146-.544.449-1.087.938-1.629 1.45a32 32 0 0 0-1.629-1.45C26.114 8.808 22.267 7.692 19.54 9.18s-3.868 5.329-3.211 10.813c.116.971.303 1.984.524 3.015C10.243 24.983 6 28.242 6 32s4.243 7.017 10.853 8.992a34 34 0 0 0-.524 3.015c-.657 5.483.483 9.323 3.211 10.813.789.431 1.67.643 2.628.643 2.357 0 5.177-1.287 8.203-3.788A33 33 0 0 0 32 50.225a32 32 0 0 0 1.629 1.45c3.026 2.501 5.846 3.788 8.203 3.788.958 0 1.84-.213 2.628-.643 2.728-1.489 3.868-5.329 3.211-10.813a34 34 0 0 0-.524-3.015C53.757 39.017 58 35.758 58 32M34.902 13.866c3.53-2.917 6.665-3.987 8.599-2.931 1.934 1.055 2.729 4.27 2.184 8.818a32 32 0 0 1-.469 2.729 51 51 0 0 0-6.892-1.166c-1.564-2.275-3.215-4.351-4.908-6.132q.742-.701 1.486-1.318m4.997 22.447a61 61 0 0 1-2.702 4.474C35.546 40.925 33.811 41 32 41s-3.546-.075-5.198-.213A61 61 0 0 1 21.958 32a60.7 60.7 0 0 1 4.844-8.787C28.454 23.075 30.189 23 32 23s3.546.075 5.198.213A61 61 0 0 1 42.042 32a62 62 0 0 1-2.143 4.313m3.179-1.826a47 47 0 0 1 1.676 5.096c-1.544.376-3.21.694-5.009.929a63 63 0 0 0 1.909-3.241 61 61 0 0 0 1.424-2.784M32 47.403c-1.272-1.341-2.522-2.863-3.729-4.513a64 64 0 0 0 7.458 0c-1.207 1.65-2.457 3.172-3.729 4.513m-7.746-6.891a47 47 0 0 1-5.009-.929 47 47 0 0 1 1.676-5.096c.45.93.918 1.859 1.423 2.785a64 64 0 0 0 1.91 3.24m-3.332-10.999a47 47 0 0 1-1.676-5.096 47 47 0 0 1 5.009-.929 63 63 0 0 0-1.909 3.241 61 61 0 0 0-1.424 2.784M32 16.597c1.272 1.341 2.522 2.863 3.729 4.513a64 64 0 0 0-7.458 0c1.207-1.65 2.457-3.172 3.729-4.513m9.655 10.132a64 64 0 0 0-1.909-3.241c1.799.235 3.465.553 5.009.929a47 47 0 0 1-1.676 5.096 63 63 0 0 0-1.424-2.784m-23.34-6.975c-.546-4.549.25-7.764 2.184-8.818.488-.267 1.053-.397 1.681-.397 1.86 0 4.278 1.147 6.918 3.328q.745.617 1.488 1.319c-1.693 1.781-3.345 3.856-4.908 6.132a51 51 0 0 0-6.892 1.166 32 32 0 0 1-.471-2.73M8 32c0-2.6 3.47-5.303 9.317-7.06.606 2.279 1.437 4.654 2.471 7.06-1.034 2.407-1.865 4.782-2.471 7.06C11.47 37.303 8 34.6 8 32m21.098 18.134c-3.53 2.917-6.662 3.989-8.599 2.931-1.934-1.055-2.729-4.27-2.184-8.818.105-.879.273-1.796.469-2.729a51 51 0 0 0 6.892 1.166c1.564 2.275 3.215 4.351 4.908 6.132-.494.466-.99.908-1.486 1.318m16.587-5.888c.546 4.549-.25 7.764-2.184 8.818-1.934 1.059-5.068-.014-8.599-2.931q-.745-.617-1.488-1.319c1.693-1.781 3.345-3.856 4.908-6.132a51 51 0 0 0 6.892-1.166c.198.934.365 1.851.471 2.73m.998-5.186c-.606-2.279-1.437-4.654-2.471-7.06 1.034-2.407 1.865-4.782 2.471-7.06C52.53 26.697 56 29.4 56 32s-3.47 5.303-9.317 7.06"/></svg>
