<svg xmlns="http://www.w3.org/2000/svg" viewBox="0 0 64 64" width="64" height="64" baseProfile="basic"><linearGradient id="a" x1="101.406" x2="120.596" y1="579.621" y2="579.621" gradientTransform="rotate(90 337.457 266.669)" gradientUnits="userSpaceOnUse"><stop offset="0" stop-color="#6dc7ff"/><stop offset="1" stop-color="#eaabff"/></linearGradient><path fill="url(#a)" d="M20.355 41.457c-.832-.844-1.855-1.924-2.944-2.819-1.125-.925-2.515-1.823-4.244-2.256q-.496-.123-.987-.205l-.897-.112.223-.104c1.501-.615 3.311-.953 5.495-.953 6.172 0 8.831 2.691 11.643 5.547.852.863 1.88 1.936 2.993 2.836 1.14.921 2.54 1.811 4.259 2.24q.493.124.984.207l.847.107-.233.108c-1.5.613-3.311.951-5.492.951-6.173-.002-8.833-2.691-11.647-5.547"/><linearGradient id="b" x1="96.905" x2="116.096" y1="575.872" y2="575.872" gradientTransform="rotate(90 349.832 265.543)" gradientUnits="userSpaceOnUse"><stop offset="0" stop-color="#6dc7ff"/><stop offset="1" stop-color="#eaabff"/></linearGradient><path fill="url(#b)" d="M35.354 23.455c-.832-.844-1.855-1.924-2.944-2.819-1.125-.925-2.515-1.823-4.244-2.256q-.497-.123-.987-.205l-.897-.112.223-.104c1.501-.615 3.311-.953 5.495-.953 6.172 0 8.831 2.691 11.643 5.547.852.863 1.88 1.936 2.993 2.836 1.14.921 2.54 1.811 4.259 2.24q.494.124.984.207l.847.107-.233.108c-1.5.613-3.311.951-5.492.951-6.174-.001-8.834-2.691-11.647-5.547"/><linearGradient id="c" x1="97.289" x2="133.928" y1="585.251" y2="585.251" gradientTransform="rotate(90 346.445 263.307)" gradientUnits="userSpaceOnUse"><stop offset="0" stop-color="#1a6dff"/><stop offset="1" stop-color="#c822ff"/></linearGradient><path fill="url(#c)" d="M17.509 44.261c-1.892-1.915-3.367-3.515-5.313-4.003-3.483-.871-6.54.54-9.395 4.344-.651.867-2.032.208-1.769-.843 2.108-8.431 7.496-12.756 15.969-12.756 7.857 0 11.511 3.712 14.492 6.739 1.879 1.905 3.421 3.516 5.372 4.004 3.481.869 6.479-.535 9.336-4.344.651-.867 2.032-.208 1.769.843-2.108 8.431-7.496 12.753-15.969 12.753-7.858 0-11.512-3.711-14.492-6.737m26.953-2.246-.472.34c-2.267 1.515-4.792 2.036-7.609 1.331-2.615-.653-4.579-2.781-6.313-4.54-2.897-2.943-6.053-6.143-13.067-6.143-5.64 0-9.647 2.067-12.096 6.292l-.376.712.503-.359c2.287-1.515 4.835-2.035 7.651-1.331 2.616.656 4.528 2.795 6.249 4.539 2.899 2.943 6.056 6.141 13.069 6.141 5.639 0 9.647-2.064 12.096-6.288z"/><linearGradient id="d" x1="97.289" x2="133.928" y1="570.253" y2="570.253" gradientTransform="rotate(90 346.445 263.307)" gradientUnits="userSpaceOnUse"><stop offset="0" stop-color="#1a6dff"/><stop offset="1" stop-color="#c822ff"/></linearGradient><path fill="url(#d)" d="M32.507 26.259c-1.892-1.915-3.367-3.515-5.313-4.003-3.483-.871-6.54.54-9.395 4.344-.651.867-2.032.208-1.769-.843 2.108-8.431 7.496-12.756 15.969-12.756 7.857 0 11.511 3.712 14.492 6.739 1.879 1.905 3.421 3.516 5.372 4.004 3.481.869 6.479-.535 9.336-4.344.651-.867 2.032-.208 1.769.843-2.108 8.431-7.496 12.753-15.969 12.753-7.857.001-11.512-3.71-14.492-6.737m26.954-2.245-.472.34c-2.267 1.515-4.792 2.036-7.609 1.331-2.615-.653-4.579-2.781-6.313-4.54-2.897-2.943-6.053-6.143-13.067-6.143-5.64 0-9.647 2.067-12.096 6.292l-.376.712.503-.359c2.287-1.515 4.835-2.035 7.651-1.331 2.616.656 4.528 2.795 6.249 4.539 2.899 2.943 6.056 6.141 13.069 6.141 5.639 0 9.647-2.064 12.096-6.288z"/></svg>
