<svg xmlns="http://www.w3.org/2000/svg" viewBox="0 0 64 64" width="64" height="64"><linearGradient id="a" x1="31.127" x2="31.778" y1="8.176" y2="56.569" gradientUnits="userSpaceOnUse"><stop offset="0" stop-color="#6dc7ff"/><stop offset="1" stop-color="#e6abff"/></linearGradient><path fill="url(#a)" d="M59.01 14.36c.02-.49-.05-1.44-.68-2.39-.6-.89-1.43-1.31-1.99-1.55-.82-.35-2.55-.84-5.16-1.59-2.06-.6-4.6-1.33-7.44-2.2-.23-.11-.47-.17-.71-.22h-.02a3.19 3.19 0 0 0-2.68.7c-3.65 3.11-13 11.09-21.23 18.15-1.62-1.18-3.07-2.24-4.3-3.14-2.67-1.95-4.31-3.14-4.52-3.29-.44-.31-.91-.48-1.4-.49a2.6 2.6 0 0 0-1.82.75l-2.7 2.72c-.19.24-.65.88-.61 1.79 0 .15.06.92.69 1.68.3.36 3.12 2.84 7.22 6.39-6.77 5.85-7.08 6.22-7.22 6.39-.63.76-.69 1.53-.69 1.67-.04.92.42 1.56.67 1.86l2.62 2.63c.17.19.81.78 1.78.78h.06c.48-.01.95-.18 1.4-.49.19-.14 1.52-1.11 3.72-2.71l5.1-3.72C26.07 44.06 34.2 51 40.33 56.23c.6.51 1.35.77 2.09.77.09 0 .18-.02.27-.03h.04c.05 0 .11-.01.16-.02.29-.04.56-.12.82-.23 2.85-.88 5.4-1.61 7.47-2.21 2.61-.75 4.34-1.24 5.16-1.59.32-.14 1.31-.56 1.99-1.56.63-.94.7-1.9.68-2.35L59 30.07c0-.03.01-.05.01-.07zM44 43.38c-5.75-4.18-11.26-8.18-16.1-11.71 4.84-3.53 10.35-7.54 16.1-11.71z"/><linearGradient id="b" x1="31.38" x2="31.38" y1="6.351" y2="57" gradientUnits="userSpaceOnUse"><stop offset="0" stop-color="#1a6dff"/><stop offset="1" stop-color="#c822ff"/></linearGradient><path fill="url(#b)" d="M59.01 14.36c.02-.49-.05-1.44-.68-2.39-.6-.89-1.43-1.31-1.99-1.55-.82-.35-2.55-.84-5.16-1.59-2.06-.6-4.6-1.33-7.44-2.2-.23-.11-.47-.17-.71-.22h-.02a3.19 3.19 0 0 0-2.68.7c-3.65 3.11-13 11.09-21.23 18.15-1.62-1.18-3.07-2.24-4.3-3.14-2.67-1.95-4.31-3.14-4.52-3.29-.44-.31-.91-.48-1.4-.49a2.6 2.6 0 0 0-1.82.75l-2.7 2.72c-.19.24-.65.88-.61 1.79 0 .15.06.92.69 1.68.3.36 3.12 2.84 7.22 6.39-6.77 5.85-7.08 6.22-7.22 6.39-.63.76-.69 1.53-.69 1.67-.04.92.42 1.56.67 1.86l2.62 2.63c.17.19.81.78 1.78.78h.06c.48-.01.95-.18 1.4-.49.19-.14 1.52-1.11 3.72-2.71l5.1-3.72C26.07 44.06 34.2 51 40.33 56.23c.6.51 1.35.77 2.09.77.09 0 .18-.02.27-.03h.04c.05 0 .11-.01.16-.02.29-.04.56-.12.82-.23 2.85-.88 5.4-1.61 7.47-2.21 2.61-.75 4.34-1.24 5.16-1.59.32-.14 1.31-.56 1.99-1.56.63-.94.7-1.9.68-2.35L59 30.07c0-.03.01-.05.01-.07zM12.82 40.18c-2.19 1.6-3.51 2.56-3.7 2.7-.04.03-.17.12-.29.12-.14 0-.33-.14-.35-.17l-2.59-2.59c-.02-.03-.15-.2-.14-.41 0-.01.02-.25.22-.48.17-.2 1.37-1.3 7.22-6.36 1.36 1.17 2.82 2.43 4.35 3.75zM44 51.34c0 .77 0 2.58-.71 3.29-.1.1-.21.17-.32.23-.12.03-.23.07-.35.1-.35.06-.71-.01-.99-.25C20.38 36.59 6.72 24.82 5.98 24c-.2-.24-.23-.47-.23-.47-.01-.25.1-.38.09-.37l2.66-2.67c0-.01.11-.15.33-.15.08 0 .18.04.29.12.21.15 1.84 1.34 4.5 3.28C19.76 28.22 31.4 36.7 44 45.85zm0-7.96c-5.75-4.18-11.26-8.18-16.1-11.71 4.84-3.53 10.35-7.54 16.1-11.71zm0-25.89c-6.38 4.63-12.5 9.09-17.8 12.94-1.95-1.42-3.77-2.74-5.44-3.96C28.9 19.49 38.03 11.7 41.63 8.63c.28-.24.64-.31.99-.25.12.03.23.07.35.1.11.06.23.13.32.23.71.7.71 2.52.71 3.29zm13.01 12.44c0 .03-.01.05-.01.07l.01 19.04c.01.24-.02.73-.35 1.21-.3.45-.74.68-1.1.83-.71.3-2.57.83-4.93 1.51-1.42.41-3.08.88-4.88 1.42.24-1.01.25-2.04.25-2.67V12c0-.64-.01-1.67-.25-2.68 1.8.54 3.46 1.02 4.88 1.43 2.36.68 4.22 1.21 4.93 1.51.23.1.77.33 1.1.83.33.48.36.96.35 1.24z"/></svg>
