<svg xmlns="http://www.w3.org/2000/svg" viewBox="0 0 64 64" width="64" height="64"><linearGradient id="a" x1="32" x2="32" y1="308.917" y2="263.324" gradientTransform="matrix(1 0 0 -1 0 318)" gradientUnits="userSpaceOnUse"><stop offset="0" stop-color="#1a6dff"/><stop offset="1" stop-color="#c822ff"/></linearGradient><path fill="url(#a)" d="M50 55H14c-2.8 0-5-2.2-5-5V14c0-2.8 2.2-5 5-5h36c2.8 0 5 2.2 5 5v36c0 2.8-2.2 5-5 5M14 11c-1.7 0-3 1.3-3 3v36c0 1.7 1.3 3 3 3h36c1.7 0 3-1.3 3-3V14c0-1.7-1.3-3-3-3z"/><linearGradient id="b" x1="625" x2="625" y1="297" y2="274" gradientTransform="rotate(180 333 159)" gradientUnits="userSpaceOnUse"><stop offset="0" stop-color="#6dc7ff"/><stop offset="1" stop-color="#e6abff"/></linearGradient><path fill="url(#b)" d="M39 26h4v-4c0-.6.4-1 1-1h2c.6 0 1 .4 1 1v18c0 2.2-1.8 4-4 4h-4c-2.2 0-4-1.8-4-4V30c0-2.2 1.8-4 4-4m0 13c0 .5.4 1 .9 1h2.2c.5 0 .9-.4.9-1v-8c0-.6-.4-1-1-1h-2c-.6 0-1 .4-1 1z"/><linearGradient id="c" x1="24.257" x2="24.257" y1="20.915" y2="43.754" gradientUnits="userSpaceOnUse"><stop offset="0" stop-color="#6dc7ff"/><stop offset="1" stop-color="#e6abff"/></linearGradient><path fill="url(#c)" d="m26.5 32.5 5.4-10c.4-.7-.1-1.5-.9-1.5h-2.3c-.4 0-.7.2-.9.5l-3.6 6.7-3.6-6.7c-.2-.3-.5-.5-.9-.5h-2.3c-.8 0-1.2.8-.9 1.5l5.4 10-5.4 10c-.4.7.1 1.5.9 1.5h2.3c.4 0 .7-.2.9-.5l3.6-6.7 3.6 6.7c.2.3.5.5.9.5H31c.8 0 1.2-.8.9-1.5z"/></svg>
